<mxfile host="app.diagrams.net" modified="2024-06-10T15:53:15.872Z" agent="Mozilla/5.0 (Windows NT 10.0; Win64; x64) AppleWebKit/537.36 (KHTML, like Gecko) Chrome/125.0.0.0 Safari/537.36 Edg/125.0.0.0" etag="hdidteClhITAOTNlYDNV" version="24.5.2" type="device">
  <diagram name="Page-1" id="5_a1E4El9cC5lANGpPHm">
    <mxGraphModel dx="1542" dy="965" grid="1" gridSize="10" guides="1" tooltips="1" connect="1" arrows="1" fold="1" page="1" pageScale="1" pageWidth="827" pageHeight="1169" math="0" shadow="0">
      <root>
        <mxCell id="0" />
        <mxCell id="1" parent="0" />
        <mxCell id="AH_bA_EmIENwen7iKQXL-6" style="edgeStyle=none;curved=1;rounded=0;orthogonalLoop=1;jettySize=auto;html=1;entryX=0.5;entryY=0;entryDx=0;entryDy=0;fontSize=12;startSize=8;endSize=8;" edge="1" parent="1" source="AH_bA_EmIENwen7iKQXL-3" target="AH_bA_EmIENwen7iKQXL-5">
          <mxGeometry relative="1" as="geometry" />
        </mxCell>
        <mxCell id="AH_bA_EmIENwen7iKQXL-3" value="verify_user()" style="ellipse;whiteSpace=wrap;html=1;" vertex="1" parent="1">
          <mxGeometry x="82.5" y="20" width="90" height="40" as="geometry" />
        </mxCell>
        <mxCell id="AH_bA_EmIENwen7iKQXL-4" value="return" style="ellipse;whiteSpace=wrap;html=1;" vertex="1" parent="1">
          <mxGeometry x="82.5" y="160" width="90" height="40" as="geometry" />
        </mxCell>
        <mxCell id="AH_bA_EmIENwen7iKQXL-7" style="edgeStyle=none;curved=1;rounded=0;orthogonalLoop=1;jettySize=auto;html=1;entryX=0.5;entryY=0;entryDx=0;entryDy=0;fontSize=12;startSize=8;endSize=8;" edge="1" parent="1" source="AH_bA_EmIENwen7iKQXL-5" target="AH_bA_EmIENwen7iKQXL-4">
          <mxGeometry relative="1" as="geometry" />
        </mxCell>
        <mxCell id="AH_bA_EmIENwen7iKQXL-5" value="len(ic_number)==12 and&lt;div&gt;password==ic_number[-4:]&lt;/div&gt;" style="rounded=0;whiteSpace=wrap;html=1;" vertex="1" parent="1">
          <mxGeometry x="25" y="90" width="205" height="40" as="geometry" />
        </mxCell>
        <mxCell id="AH_bA_EmIENwen7iKQXL-8" style="edgeStyle=none;curved=1;rounded=0;orthogonalLoop=1;jettySize=auto;html=1;entryX=0.5;entryY=0;entryDx=0;entryDy=0;fontSize=12;startSize=8;endSize=8;" edge="1" parent="1" source="AH_bA_EmIENwen7iKQXL-9" target="AH_bA_EmIENwen7iKQXL-12">
          <mxGeometry relative="1" as="geometry" />
        </mxCell>
        <mxCell id="AH_bA_EmIENwen7iKQXL-9" value="calculate_tax()" style="ellipse;whiteSpace=wrap;html=1;" vertex="1" parent="1">
          <mxGeometry x="78.75" y="230" width="97.5" height="40" as="geometry" />
        </mxCell>
        <mxCell id="AH_bA_EmIENwen7iKQXL-14" style="edgeStyle=none;curved=1;rounded=0;orthogonalLoop=1;jettySize=auto;html=1;entryX=0.5;entryY=0;entryDx=0;entryDy=0;fontSize=12;startSize=8;endSize=8;" edge="1" parent="1" source="AH_bA_EmIENwen7iKQXL-12" target="AH_bA_EmIENwen7iKQXL-13">
          <mxGeometry relative="1" as="geometry" />
        </mxCell>
        <mxCell id="AH_bA_EmIENwen7iKQXL-12" value="taxable_income = income - tax_relief&lt;div&gt;tax_payable = 0&lt;/div&gt;" style="rounded=0;whiteSpace=wrap;html=1;" vertex="1" parent="1">
          <mxGeometry x="20" y="300" width="215" height="40" as="geometry" />
        </mxCell>
        <mxCell id="AH_bA_EmIENwen7iKQXL-16" style="edgeStyle=none;curved=1;rounded=0;orthogonalLoop=1;jettySize=auto;html=1;entryX=0;entryY=0.5;entryDx=0;entryDy=0;fontSize=12;startSize=8;endSize=8;" edge="1" parent="1" source="AH_bA_EmIENwen7iKQXL-13" target="AH_bA_EmIENwen7iKQXL-15">
          <mxGeometry relative="1" as="geometry" />
        </mxCell>
        <mxCell id="AH_bA_EmIENwen7iKQXL-18" style="edgeStyle=none;curved=1;rounded=0;orthogonalLoop=1;jettySize=auto;html=1;entryX=0.5;entryY=0;entryDx=0;entryDy=0;fontSize=12;startSize=8;endSize=8;" edge="1" parent="1" source="AH_bA_EmIENwen7iKQXL-13" target="AH_bA_EmIENwen7iKQXL-17">
          <mxGeometry relative="1" as="geometry" />
        </mxCell>
        <mxCell id="AH_bA_EmIENwen7iKQXL-13" value="if&amp;nbsp;&lt;div&gt;taxable_income&lt;/div&gt;&lt;div&gt;&amp;nbsp;&amp;lt;= 5,000&lt;/div&gt;" style="rhombus;whiteSpace=wrap;html=1;" vertex="1" parent="1">
          <mxGeometry x="61.25" y="370" width="132.5" height="80" as="geometry" />
        </mxCell>
        <mxCell id="AH_bA_EmIENwen7iKQXL-15" value="tax_payable = 0" style="rounded=0;whiteSpace=wrap;html=1;" vertex="1" parent="1">
          <mxGeometry x="250" y="390" width="100" height="40" as="geometry" />
        </mxCell>
        <mxCell id="AH_bA_EmIENwen7iKQXL-20" style="edgeStyle=none;curved=1;rounded=0;orthogonalLoop=1;jettySize=auto;html=1;entryX=0;entryY=0.5;entryDx=0;entryDy=0;fontSize=12;startSize=8;endSize=8;" edge="1" parent="1" source="AH_bA_EmIENwen7iKQXL-17" target="AH_bA_EmIENwen7iKQXL-19">
          <mxGeometry relative="1" as="geometry" />
        </mxCell>
        <mxCell id="AH_bA_EmIENwen7iKQXL-23" style="edgeStyle=none;curved=1;rounded=0;orthogonalLoop=1;jettySize=auto;html=1;entryX=0.5;entryY=0;entryDx=0;entryDy=0;fontSize=12;startSize=8;endSize=8;" edge="1" parent="1" source="AH_bA_EmIENwen7iKQXL-17" target="AH_bA_EmIENwen7iKQXL-21">
          <mxGeometry relative="1" as="geometry" />
        </mxCell>
        <mxCell id="AH_bA_EmIENwen7iKQXL-17" value="if&amp;nbsp;&lt;div&gt;taxable_income&lt;/div&gt;&lt;div&gt;&amp;nbsp;&amp;lt;= 20,000&lt;/div&gt;" style="rhombus;whiteSpace=wrap;html=1;" vertex="1" parent="1">
          <mxGeometry x="61.25" y="480" width="132.5" height="80" as="geometry" />
        </mxCell>
        <mxCell id="AH_bA_EmIENwen7iKQXL-19" value="tax_payable = (taxable_income - 5000) * 0.01" style="rounded=0;whiteSpace=wrap;html=1;" vertex="1" parent="1">
          <mxGeometry x="250" y="500" width="260" height="40" as="geometry" />
        </mxCell>
        <mxCell id="AH_bA_EmIENwen7iKQXL-24" style="edgeStyle=none;curved=1;rounded=0;orthogonalLoop=1;jettySize=auto;html=1;entryX=0.5;entryY=0;entryDx=0;entryDy=0;fontSize=12;startSize=8;endSize=8;" edge="1" parent="1" source="AH_bA_EmIENwen7iKQXL-21" target="AH_bA_EmIENwen7iKQXL-22">
          <mxGeometry relative="1" as="geometry" />
        </mxCell>
        <mxCell id="AH_bA_EmIENwen7iKQXL-27" style="edgeStyle=none;curved=1;rounded=0;orthogonalLoop=1;jettySize=auto;html=1;entryX=0;entryY=0.5;entryDx=0;entryDy=0;fontSize=12;startSize=8;endSize=8;" edge="1" parent="1" source="AH_bA_EmIENwen7iKQXL-21" target="AH_bA_EmIENwen7iKQXL-25">
          <mxGeometry relative="1" as="geometry" />
        </mxCell>
        <mxCell id="AH_bA_EmIENwen7iKQXL-21" value="if&amp;nbsp;&lt;div&gt;taxable_income&lt;/div&gt;&lt;div&gt;&amp;nbsp;&amp;lt;= 35,000&lt;/div&gt;" style="rhombus;whiteSpace=wrap;html=1;" vertex="1" parent="1">
          <mxGeometry x="61.25" y="590" width="132.5" height="80" as="geometry" />
        </mxCell>
        <mxCell id="AH_bA_EmIENwen7iKQXL-28" style="edgeStyle=none;curved=1;rounded=0;orthogonalLoop=1;jettySize=auto;html=1;fontSize=12;startSize=8;endSize=8;" edge="1" parent="1" source="AH_bA_EmIENwen7iKQXL-22" target="AH_bA_EmIENwen7iKQXL-26">
          <mxGeometry relative="1" as="geometry" />
        </mxCell>
        <mxCell id="AH_bA_EmIENwen7iKQXL-31" style="edgeStyle=none;curved=1;rounded=0;orthogonalLoop=1;jettySize=auto;html=1;entryX=0.5;entryY=0;entryDx=0;entryDy=0;fontSize=12;startSize=8;endSize=8;" edge="1" parent="1" source="AH_bA_EmIENwen7iKQXL-22" target="AH_bA_EmIENwen7iKQXL-29">
          <mxGeometry relative="1" as="geometry" />
        </mxCell>
        <mxCell id="AH_bA_EmIENwen7iKQXL-22" value="if&amp;nbsp;&lt;div&gt;taxable_income&lt;/div&gt;&lt;div&gt;&amp;nbsp;&amp;lt;= 50,000&lt;/div&gt;" style="rhombus;whiteSpace=wrap;html=1;" vertex="1" parent="1">
          <mxGeometry x="61.25" y="700" width="132.5" height="80" as="geometry" />
        </mxCell>
        <mxCell id="AH_bA_EmIENwen7iKQXL-25" value="tax_payable = 15000 * 0.01 + (taxable_income - 20000) * 0.03" style="rounded=0;whiteSpace=wrap;html=1;" vertex="1" parent="1">
          <mxGeometry x="250" y="610" width="340" height="40" as="geometry" />
        </mxCell>
        <mxCell id="AH_bA_EmIENwen7iKQXL-26" value="tax_payable = 15000 * 0.01 + 15000 * 0.03 + (taxable_income - 35000) * 0.06" style="rounded=0;whiteSpace=wrap;html=1;" vertex="1" parent="1">
          <mxGeometry x="250" y="720" width="430" height="40" as="geometry" />
        </mxCell>
        <mxCell id="AH_bA_EmIENwen7iKQXL-32" style="edgeStyle=none;curved=1;rounded=0;orthogonalLoop=1;jettySize=auto;html=1;entryX=0;entryY=0.5;entryDx=0;entryDy=0;fontSize=12;startSize=8;endSize=8;" edge="1" parent="1" source="AH_bA_EmIENwen7iKQXL-29" target="AH_bA_EmIENwen7iKQXL-30">
          <mxGeometry relative="1" as="geometry" />
        </mxCell>
        <mxCell id="AH_bA_EmIENwen7iKQXL-29" value="if&amp;nbsp;&lt;div&gt;taxable_income&lt;/div&gt;&lt;div&gt;&amp;nbsp;&amp;lt;= 70,000&lt;/div&gt;" style="rhombus;whiteSpace=wrap;html=1;" vertex="1" parent="1">
          <mxGeometry x="61.25" y="820" width="132.5" height="80" as="geometry" />
        </mxCell>
        <mxCell id="AH_bA_EmIENwen7iKQXL-30" value="tax_payable = 15000 * 0.01 + 15000 * 0.03 + 15000 * 0.06 (taxable_income - 50000) * 0.011" style="rounded=0;whiteSpace=wrap;html=1;" vertex="1" parent="1">
          <mxGeometry x="250" y="840" width="500" height="40" as="geometry" />
        </mxCell>
        <mxCell id="AH_bA_EmIENwen7iKQXL-33" value="tax_payable = 15000 * 0.01 + 15000 * 0.03 + 15000 * 0.06 + 20000 * 0.11 (taxable_income - 70000) * 0.019" style="rounded=0;whiteSpace=wrap;html=1;" vertex="1" parent="1">
          <mxGeometry x="78.75" y="930" width="611.25" height="40" as="geometry" />
        </mxCell>
        <mxCell id="AH_bA_EmIENwen7iKQXL-34" style="edgeStyle=none;curved=1;rounded=0;orthogonalLoop=1;jettySize=auto;html=1;entryX=0.076;entryY=0.014;entryDx=0;entryDy=0;entryPerimeter=0;fontSize=12;startSize=8;endSize=8;" edge="1" parent="1" source="AH_bA_EmIENwen7iKQXL-29" target="AH_bA_EmIENwen7iKQXL-33">
          <mxGeometry relative="1" as="geometry" />
        </mxCell>
        <mxCell id="AH_bA_EmIENwen7iKQXL-38" style="edgeStyle=none;curved=1;rounded=0;orthogonalLoop=1;jettySize=auto;html=1;entryX=0.5;entryY=0;entryDx=0;entryDy=0;fontSize=12;startSize=8;endSize=8;" edge="1" parent="1" source="AH_bA_EmIENwen7iKQXL-35" target="AH_bA_EmIENwen7iKQXL-37">
          <mxGeometry relative="1" as="geometry" />
        </mxCell>
        <mxCell id="AH_bA_EmIENwen7iKQXL-35" value="max(0,tax_payable)" style="rounded=0;whiteSpace=wrap;html=1;" vertex="1" parent="1">
          <mxGeometry x="67.5" y="1020" width="120" height="60" as="geometry" />
        </mxCell>
        <mxCell id="AH_bA_EmIENwen7iKQXL-36" value="" style="endArrow=classic;html=1;rounded=0;fontSize=12;startSize=8;endSize=8;curved=1;exitX=0.079;exitY=1.03;exitDx=0;exitDy=0;exitPerimeter=0;entryX=0.5;entryY=0;entryDx=0;entryDy=0;" edge="1" parent="1" source="AH_bA_EmIENwen7iKQXL-33" target="AH_bA_EmIENwen7iKQXL-35">
          <mxGeometry width="50" height="50" relative="1" as="geometry">
            <mxPoint x="150" y="960" as="sourcePoint" />
            <mxPoint x="200" y="910" as="targetPoint" />
          </mxGeometry>
        </mxCell>
        <mxCell id="AH_bA_EmIENwen7iKQXL-37" value="return" style="ellipse;whiteSpace=wrap;html=1;" vertex="1" parent="1">
          <mxGeometry x="92.5" y="1110" width="70" height="40" as="geometry" />
        </mxCell>
      </root>
    </mxGraphModel>
  </diagram>
</mxfile>
